<svg width="24" height="24" viewBox="0 0 24 24" fill="none" xmlns="http://www.w3.org/2000/svg">
<path fill-rule="evenodd" clip-rule="evenodd" d="M3.2484 9.82753L3.31578 9.77867V19.8625C3.31578 21.043 4.25833 22 5.42103 22H18.5788C19.7415 22 20.6841 21.043 20.6841 19.8625V9.77858L20.7516 9.82753C21.1064 10.0848 21.5995 10.0014 21.8529 9.64118C22.1063 9.28095 22.0241 8.78035 21.6693 8.52305L13.2237 2.39814C12.4917 1.86729 11.5083 1.86729 10.7763 2.39814L2.33066 8.52305C1.97586 8.78035 1.89369 9.28095 2.14711 9.64118C2.40054 10.0014 2.8936 10.0848 3.2484 9.82753ZM12.3059 3.70262C12.1229 3.56991 11.8771 3.56991 11.6941 3.70262L4.89472 8.6336V19.8625C4.89472 20.1577 5.13036 20.3969 5.42103 20.3969H8.57891V14.5188C8.57891 12.6005 10.1106 11.0454 11.9999 11.0454C13.8893 11.0454 15.421 12.6005 15.421 14.5188V20.3969H18.5788C18.8695 20.3969 19.1052 20.1577 19.1052 19.8625V8.63351L12.3059 3.70262ZM13.842 20.3969V14.5188C13.842 13.4859 13.0173 12.6485 11.9999 12.6485C10.9826 12.6485 10.1578 13.4859 10.1578 14.5188V20.3969H13.842Z" fill="#282828"/>
</svg>
