<svg width="24" height="24" viewBox="0 0 24 24" fill="none" xmlns="http://www.w3.org/2000/svg">
<path fill-rule="evenodd" clip-rule="evenodd" d="M3.2484 9.82753L3.31578 9.77867V19.8625C3.31578 21.043 4.25833 22 5.42103 22H18.5788C19.7415 22 20.6841 21.043 20.6841 19.8625V9.77858L20.7516 9.82753C21.1064 10.0848 21.5995 10.0014 21.8529 9.64118C22.1063 9.28095 22.0241 8.78035 21.6693 8.52305L13.2237 2.39814C12.4917 1.86729 11.5083 1.86729 10.7763 2.39814L2.33066 8.52305C1.97586 8.78035 1.89369 9.28095 2.14711 9.64118C2.40054 10.0014 2.8936 10.0848 3.2484 9.82753ZM14.6316 20.3969V14.5189C14.6316 13.0433 13.4534 11.8471 12.0001 11.8471C10.5467 11.8471 9.3685 13.0433 9.3685 14.5189L9.36851 20.3969H14.6316Z" fill="#282828"/>
</svg>
