<svg width="20" height="20" viewBox="0 0 20 20" fill="none" xmlns="http://www.w3.org/2000/svg">
<path d="M13.3333 10C13.3333 11.841 11.841 13.3333 10 13.3333C8.15905 13.3333 6.66667 11.841 6.66667 10C6.66667 8.15905 8.15905 6.66667 10 6.66667C11.841 6.66667 13.3333 8.15905 13.3333 10Z" fill="#282828"/>
<path fill-rule="evenodd" clip-rule="evenodd" d="M10.6667 2.25039C14.4304 2.5699 17.4301 5.56961 17.7496 9.33333H20V10.6667H17.7496C17.4301 14.4304 14.4304 17.4301 10.6667 17.7496V20H9.33333V17.7496C5.56961 17.4301 2.5699 14.4304 2.25039 10.6667H0V9.33333H2.25039C2.5699 5.56961 5.56961 2.5699 9.33333 2.25039V0H10.6667V2.25039ZM10 16.6111C13.6512 16.6111 16.6111 13.6512 16.6111 10C16.6111 6.34878 13.6512 3.38889 10 3.38889C6.34878 3.38889 3.38889 6.34878 3.38889 10C3.38889 13.6512 6.34878 16.6111 10 16.6111Z" fill="#282828"/>
</svg>
