<svg width="24" height="24" viewBox="0 0 24 24" fill="none" xmlns="http://www.w3.org/2000/svg">
<path fill-rule="evenodd" clip-rule="evenodd" d="M2.00004 7C2.00004 4.23858 4.23861 2 7.00003 2H17C19.7614 2 22 4.23857 22 6.99999V12.7952C22 15.5567 19.7614 17.7952 17 17.7952L8.46443 17.7952C8.32547 17.7952 8.19047 17.8415 8.08077 17.9269L3.0087 21.871C2.59815 22.1902 2.00004 21.8976 2.00004 21.3776L2.001 12.9359C1.99993 12.8971 1.99997 12.8578 2.00002 12.8186L2.00004 7ZM7.87493 11.1247C8.56528 11.1247 9.12493 10.5651 9.12493 9.87474C9.12493 9.18439 8.56528 8.62474 7.87493 8.62474C7.18457 8.62474 6.62493 9.18439 6.62493 9.87474C6.62493 10.5651 7.18457 11.1247 7.87493 11.1247ZM13.25 9.87474C13.25 10.5651 12.6903 11.1247 12 11.1247C11.3096 11.1247 10.75 10.5651 10.75 9.87474C10.75 9.18439 11.3096 8.62474 12 8.62474C12.6903 8.62474 13.25 9.18439 13.25 9.87474ZM16.125 11.1247C16.8154 11.1247 17.375 10.5651 17.375 9.87474C17.375 9.18439 16.8154 8.62474 16.125 8.62474C15.4347 8.62474 14.875 9.18439 14.875 9.87474C14.875 10.5651 15.4347 11.1247 16.125 11.1247Z" fill="#282828"/>
</svg>
