<svg width="18" height="18" viewBox="0 0 18 18" fill="none" xmlns="http://www.w3.org/2000/svg">
<path fill-rule="evenodd" clip-rule="evenodd" d="M0.164421 11.7651C0.0591441 11.8701 0 12.0126 0 12.1611V14.5373C0 14.8466 0.251332 15.0974 0.561367 15.0974H2.94305C3.09193 15.0974 3.23472 15.0384 3.33999 14.9333L14.687 3.61254C14.9063 3.39382 14.9063 3.03921 14.687 2.82049L12.3053 0.444314C12.0861 0.225593 11.7307 0.225593 11.5115 0.444314L0.164421 11.7651ZM1.34728 12.4859V13.7532H2.61751L10.8568 5.53293L9.58661 4.26564L1.34728 12.4859ZM13.1786 3.21651L11.8095 4.58246L10.5393 3.31517L11.9084 1.94922L13.1786 3.21651Z" fill="#282828"/>
<path d="M17.3264 17.7178C17.6984 17.7178 18 17.4169 18 17.0457C18 16.6745 17.6984 16.3736 17.3264 16.3736H0.709885C0.337844 16.3736 0.036244 16.6745 0.036244 17.0457C0.036244 17.4169 0.337843 17.7178 0.709885 17.7178H17.3264Z" fill="#282828"/>
</svg>
