<svg width="24" height="24" viewBox="0 0 24 24" fill="none" xmlns="http://www.w3.org/2000/svg">
<path d="M7.87494 11.1248C8.56529 11.1248 9.12494 10.5651 9.12494 9.87476C9.12494 9.1844 8.56529 8.62476 7.87494 8.62476C7.18458 8.62476 6.62494 9.1844 6.62494 9.87476C6.62494 10.5651 7.18458 11.1248 7.87494 11.1248Z" fill="#282828"/>
<path d="M13.25 9.87476C13.25 10.5651 12.6904 11.1248 12 11.1248C11.3096 11.1248 10.75 10.5651 10.75 9.87476C10.75 9.1844 11.3096 8.62476 12 8.62476C12.6904 8.62476 13.25 9.1844 13.25 9.87476Z" fill="#282828"/>
<path d="M16.1251 11.1248C16.8154 11.1248 17.3751 10.5651 17.3751 9.87476C17.3751 9.1844 16.8154 8.62476 16.1251 8.62476C15.4347 8.62476 14.8751 9.1844 14.8751 9.87476C14.8751 10.5651 15.4347 11.1248 16.1251 11.1248Z" fill="#282828"/>
<path fill-rule="evenodd" clip-rule="evenodd" d="M7 2C4.23858 2 2 4.17593 2 6.86008V21.3913C2 21.9007 2.60621 22.184 3.01543 21.8657L8.0788 17.9284C8.18962 17.8422 8.32732 17.7953 8.46924 17.7953H17C19.7614 17.7953 22 15.6193 22 12.9352V6.86008C22 4.17593 19.7614 2 17 2H7ZM3.5 6.86008C3.5 4.98118 5.067 3.45802 7 3.45802H17C18.933 3.45802 20.5 4.98118 20.5 6.86008V12.9352C20.5 14.8141 18.933 16.3372 17 16.3372H8.46924C7.98671 16.3372 7.51855 16.4969 7.14176 16.7899L3.5 19.6217V6.86008Z" fill="#282828"/>
</svg>
