<svg width="186" height="186" viewBox="0 0 186 186" fill="none" xmlns="http://www.w3.org/2000/svg">
<path d="M186 93C186 144.362 144.362 186 93 186C41.6375 186 0 144.362 0 93C0 41.6375 41.6375 0 93 0C144.362 0 186 41.6375 186 93Z" fill="#D9D9D9"/>
<path d="M34.3384 165.169C39.3712 140.401 63.7206 121.615 93 121.615C122.279 121.615 146.629 140.401 151.662 165.169C135.659 178.193 115.241 186 93 186C70.7589 186 50.3413 178.193 34.3384 165.169Z" fill="white"/>
<path d="M121.615 80.4808C121.615 96.6139 108.537 109.692 92.4038 109.692C76.2708 109.692 63.1923 96.6139 63.1923 80.4808C63.1923 64.3477 76.2708 51.2692 92.4038 51.2692C108.537 51.2692 121.615 64.3477 121.615 80.4808Z" fill="white"/>
</svg>
