<svg width="18" height="18" viewBox="0 0 18 18" fill="none" xmlns="http://www.w3.org/2000/svg">
<path fill-rule="evenodd" clip-rule="evenodd" d="M14.873 13.8518C17.6655 10.5413 17.5025 5.58643 14.384 2.4679C11.0934 -0.822632 5.75843 -0.822633 2.4679 2.4679C-0.822632 5.75843 -0.822632 11.0934 2.4679 14.384C5.58637 17.5024 10.5411 17.6655 13.8516 14.8731L16.7671 17.7886C17.0491 18.0707 17.5064 18.0707 17.7885 17.7886C18.0705 17.5066 18.0705 17.0493 17.7885 16.7673L14.873 13.8518ZM13.3626 3.48927C16.089 6.21571 16.089 10.6361 13.3626 13.3626C10.6361 16.089 6.21571 16.089 3.48927 13.3626C0.762835 10.6361 0.762835 6.21571 3.48927 3.48927C6.21571 0.762835 10.6361 0.762835 13.3626 3.48927Z" fill="black"/>
</svg>
