<svg width="24" height="24" viewBox="0 0 24 24" fill="none" xmlns="http://www.w3.org/2000/svg">
<path fill-rule="evenodd" clip-rule="evenodd" d="M12 22C17.5228 22 22 17.5228 22 12C22 6.47715 17.5228 2 12 2C6.47715 2 2 6.47715 2 12C2 17.5228 6.47715 22 12 22ZM7.87494 13.25C8.56529 13.25 9.12494 12.6904 9.12494 12C9.12494 11.3096 8.56529 10.75 7.87494 10.75C7.18458 10.75 6.62494 11.3096 6.62494 12C6.62494 12.6904 7.18458 13.25 7.87494 13.25ZM12 13.25C12.6904 13.25 13.25 12.6904 13.25 12C13.25 11.3096 12.6904 10.75 12 10.75C11.3096 10.75 10.75 11.3096 10.75 12C10.75 12.6904 11.3096 13.25 12 13.25ZM17.3751 12C17.3751 12.6904 16.8154 13.25 16.1251 13.25C15.4347 13.25 14.8751 12.6904 14.8751 12C14.8751 11.3096 15.4347 10.75 16.1251 10.75C16.8154 10.75 17.3751 11.3096 17.3751 12Z" fill="#282828"/>
</svg>
